    <svg viewBox="0 0 24 24" aria-hidden="true" xmlns="http://www.w3.org/2000/svg">
      <path d="M12 2
               C6.48 2 2 6.48 2 12
               c0 4.42 2.87 8.17 6.84 9.5
               .5.09.66-.22.66-.48
               0-.24-.01-1.02-.01-1.86
               -2.78.6-3.37-1.19-3.37-1.19
               -.45-1.14-1.11-1.44-1.11-1.44
               -.91-.62.07-.61.07-.61
               1.01.07 1.54 1.04 1.54 1.04
               .9 1.54 2.36 1.09 2.94.83
               .09-.65.35-1.09.63-1.34
               -2.22-.25-4.56-1.11-4.56-4.95
               0-1.09.39-1.98 1.03-2.68
               -.1-.25-.45-1.27.1-2.64
               0 0 .84-.27 2.75 1.02
               .8-.22 1.65-.33 2.5-.33
               .85 0 1.7.11 2.5.33
               1.91-1.29 2.75-1.02 2.75-1.02
               .55 1.37.2 2.39.1 2.64
               .64.7 1.03 1.59 1.03 2.68
               0 3.85-2.34 4.7-4.57 4.95
               .36.31.68.92.68 1.85
               0 1.34-.01 2.42-.01 2.75
               0 .26.16.58.67.48
               A10.02 10.02 0 0 0 22 12
               C22 6.48 17.52 2 12 2z"/>
    </svg>