<svg aria-hidden="true" viewBox="0 0 24 24" fill="none" xmlns="http://www.w3.org/2000/svg">
  <circle cx="12" cy="12" r="12" fill="currentColor"/>
  <path d="M8.1,17.5H6.6V7.4h1.4v4.5V17.5z" fill="var(--bg-color)"/>
  <path d="M10.2,7.4h3.9c3.7,0,5.3,2.7,5.3,5c0,2.6-2,5-5.3,5h-3.9V7.4z M11.7,16.2h2.3
    c3.3,0,4-2.5,4-3.7c0-2-1.3-3.7-4.1-3.7h-2.2V16.2z" fill="var(--bg-color)"/>
  <path d="M8.3,5.3c0,0.5-0.4,0.9-0.9,0.9C6.9,6.3,6.5,5.9,6.5,5.3c0-0.5,0.4-0.9,0.9-0.9
    C7.9,4.4,8.3,4.8,8.3,5.3z" fill="var(--bg-color)"/>
</svg>